<?xml version="1.0" standalone="no"?>
<!DOCTYPE svg PUBLIC "-//W3C//DTD SVG 20010904//EN"
 "http://www.w3.org/TR/2001/REC-SVG-20010904/DTD/svg10.dtd">
<svg version="1.0" xmlns="http://www.w3.org/2000/svg"
 width="271.000000pt" height="271.000000pt" viewBox="0 0 271.000000 271.000000"
 preserveAspectRatio="xMidYMid meet">
<metadata>
Created by potrace 1.14, written by Peter Selinger 2001-2017
</metadata>
<g transform="translate(0.000000,271.000000) scale(0.100000,-0.100000)"
fill="#000000" stroke="none">
<path d="M1371 2583 c-5 -10 -25 -56 -44 -103 -31 -75 -69 -162 -97 -225 -5
-11 -64 -148 -131 -305 -66 -157 -131 -307 -144 -335 -12 -27 -33 -75 -45
-105 -13 -30 -33 -78 -46 -107 -13 -28 -24 -55 -24 -59 0 -4 -27 -63 -61 -133
-33 -69 -64 -135 -69 -146 -5 -11 -21 -47 -35 -79 -73 -164 -125 -298 -120
-307 7 -10 572 -13 598 -3 8 3 102 100 208 217 107 116 246 268 310 337 64 69
140 152 170 185 29 33 105 116 169 185 63 69 160 175 215 235 55 61 103 112
106 115 29 26 219 243 219 250 0 6 -57 10 -145 10 -121 0 -145 2 -145 15 0 8
58 92 129 187 71 95 127 176 124 181 -2 4 -258 7 -568 7 -527 0 -565 -1 -574
-17z"/>
</g>
</svg>
